<?xml version="1.0" encoding="UTF-8" standalone="no"?>
<!DOCTYPE svg PUBLIC "-//W3C//DTD SVG 1.1//EN" "http://www.w3.org/Graphics/SVG/1.1/DTD/svg11.dtd">
<svg width="100%" height="100%" viewBox="0 0 227 227" version="1.1" xmlns="http://www.w3.org/2000/svg" xmlns:xlink="http://www.w3.org/1999/xlink" xml:space="preserve" xmlns:serif="http://www.serif.com/" style="fill-rule:evenodd;clip-rule:evenodd;stroke-linejoin:round;stroke-miterlimit:2;">
    <g transform="matrix(0.957806,0,0,0.957806,-197.308,-119.726)">
        <path d="M443,128.218C443.216,126.025 442.058,125.052 439.864,125L209.39,125C207.138,124.963 206.008,125.984 206,128.065L206,241.497C225.485,236.604 244.264,224.93 260.291,186.808C264.409,168.208 281.057,152.705 311.899,140.711L351.655,139.652C380.919,154.525 400.181,171.09 399.264,194.222L328.856,194.723C310.976,229.753 312.727,261.224 334.754,289.018C346.271,289.553 358.053,288.812 370.137,286.625C391.356,283.131 395.465,284.343 407.066,283.494C409.565,312.181 400.721,335.247 358.594,351.605C358.594,351.605 335.598,352.269 327.107,352.216C316.884,352.153 304.868,342.723 293.893,337.654C282.061,332.188 270.096,319.629 256.115,319.423C241.466,319.206 220.575,326.642 206,336.355L206,358.871C205.947,360.824 207.023,361.85 209.168,362L439.866,362C441.953,362.04 442.973,360.977 443,358.885L443,128.218Z" style="fill:rgb(174,0,0);"/>
    </g>
</svg>
